# xmcd
#
# Track frame offsets:
#	150
#	17683
#	32820
#	49824
#	70199
#	85949
#	101977
#	118869
#	135900
#	151483
#	169991
#	185908
#	202299
#	216321
#	234885
#	250579
#	269032
#	286537
#	303429
#	318120
#
# Disc length: 4481
#
# Revision: 2
# Processed by: cddbd v1.5.1PL0 Copyright (c) Steve Scherf et al.
# Submitted via: CDex 1.50beta10
# Normalized: r0:TRMNUM;r1:TDELIM( - )
#
DISCID=25117f14
DTITLE=Various Artist - Viva Hits 15 CD 1
DYEAR=2001
DGENRE=New Age
TTITLE0=Kylie Minogue - Can't Get You Out Of My Head
TTITLE1=Afroman - Because I Got High (Afrolicious Edit)
TTITLE2=Peter Ries - When The Angels Sing
TTITLE3=Tunde Baiyewu - (I Wish I Knew How It Would Feel To Be) Free/ One
TTITLE4=Atomic Kitten - You Are (Radio Edit)
TTITLE5=Kim Sanders - Dancing With Loneliness
TTITLE6=LASGO - Something (Radio Edit)
TTITLE7=Kai Tracid - Life Is Too Short (Video Cut)
TTITLE8=Sylver - Forgiven (Radio Edit)
TTITLE9=Sarah Connor - From Sarah With Love (Kayrob Dance Mix)
TTITLE10=Fragma - Say That You're Here (Radio Version)
TTITLE11=Barthezz - Infected (Radio Edit)
TTITLE12=Missyna - Das Leben (Radio Mix)
TTITLE13=Terence Trent D'Arby - O Divina
TTITLE14=Sasha - Here She Comes Again (Radio Version)
TTITLE15=Cooti Hi - Can I Live
TTITLE16=Aaliyah - More Than A Woman
TTITLE17=Tiga&Zyntherius - Sunglasses At Night (Radio Edit)
TTITLE18=Milk Inc. - Walk On Water (H20 Radio Mix)
TTITLE19=Depeche Mode - Freelove (Flood Mix)
EXTD=YEAR: 2001
EXTT0=
EXTT1=
EXTT2=
EXTT3=
EXTT4=
EXTT5=
EXTT6=
EXTT7=
EXTT8=
EXTT9=
EXTT10=
EXTT11=
EXTT12=
EXTT13=
EXTT14=
EXTT15=
EXTT16=
EXTT17=
EXTT18=
EXTT19=
PLAYORDER=
